<?xml version="1.0" encoding="utf-8"?>
<!-- Generator: Adobe Illustrator 16.0.3, SVG Export Plug-In . SVG Version: 6.00 Build 0)  -->
<!DOCTYPE svg PUBLIC "-//W3C//DTD SVG 1.0//EN" "http://www.w3.org/TR/2001/REC-SVG-20010904/DTD/svg10.dtd">
<svg version="1.0" id="Layer_1" xmlns="http://www.w3.org/2000/svg" xmlns:xlink="http://www.w3.org/1999/xlink" x="0px" y="0px"
	 width="569px" height="285px" viewBox="0 0 569 285" enable-background="new 0 0 569 285" xml:space="preserve">
<g>
	<defs>
		<rect id="SVGID_1_" x="30.196" y="2.48" width="536.99" height="255.14"/>
	</defs>
	<clipPath id="SVGID_2_">
		<use xlink:href="#SVGID_1_"  overflow="visible"/>
	</clipPath>
	<rect x="30.196" y="2.48" clip-path="url(#SVGID_2_)" fill="#FFFFFF" width="536.99" height="255.14"/>
	<rect x="54.606" y="14.07" clip-path="url(#SVGID_2_)" fill="#666666" width="16.27" height="231.95"/>
	
		<rect x="54.606" y="14.07" clip-path="url(#SVGID_2_)" fill="none" stroke="#FFFFFF" stroke-width="1.07" stroke-linejoin="round" stroke-miterlimit="10" width="16.27" height="231.95"/>
	<rect x="70.876" y="156.47" clip-path="url(#SVGID_2_)" fill="#666666" width="16.27" height="89.55"/>
	
		<rect x="70.876" y="156.47" clip-path="url(#SVGID_2_)" fill="none" stroke="#FFFFFF" stroke-width="1.07" stroke-linejoin="round" stroke-miterlimit="10" width="16.27" height="89.55"/>
	<rect x="87.146" y="210.2" clip-path="url(#SVGID_2_)" fill="#666666" width="16.27" height="35.819"/>
	
		<rect x="87.146" y="210.2" clip-path="url(#SVGID_2_)" fill="none" stroke="#FFFFFF" stroke-width="1.07" stroke-linejoin="round" stroke-miterlimit="10" width="16.27" height="35.819"/>
	<rect x="103.426" y="216.47" clip-path="url(#SVGID_2_)" fill="#666666" width="16.27" height="29.55"/>
	
		<rect x="103.426" y="216.47" clip-path="url(#SVGID_2_)" fill="none" stroke="#FFFFFF" stroke-width="1.07" stroke-linejoin="round" stroke-miterlimit="10" width="16.27" height="29.55"/>
	<rect x="119.696" y="238.86" clip-path="url(#SVGID_2_)" fill="#666666" width="16.27" height="7.159"/>
	
		<rect x="119.696" y="238.86" clip-path="url(#SVGID_2_)" fill="none" stroke="#FFFFFF" stroke-width="1.07" stroke-linejoin="round" stroke-miterlimit="10" width="16.27" height="7.159"/>
	<rect x="135.966" y="238.86" clip-path="url(#SVGID_2_)" fill="#666666" width="16.27" height="7.159"/>
	
		<rect x="135.966" y="238.86" clip-path="url(#SVGID_2_)" fill="none" stroke="#FFFFFF" stroke-width="1.07" stroke-linejoin="round" stroke-miterlimit="10" width="16.27" height="7.159"/>
	<rect x="152.236" y="237.96" clip-path="url(#SVGID_2_)" fill="#666666" width="16.27" height="8.06"/>
	
		<rect x="152.236" y="237.96" clip-path="url(#SVGID_2_)" fill="none" stroke="#FFFFFF" stroke-width="1.07" stroke-linejoin="round" stroke-miterlimit="10" width="16.27" height="8.06"/>
	<rect x="168.517" y="232.59" clip-path="url(#SVGID_2_)" fill="#666666" width="16.27" height="13.43"/>
	
		<rect x="168.517" y="232.59" clip-path="url(#SVGID_2_)" fill="none" stroke="#FFFFFF" stroke-width="1.07" stroke-linejoin="round" stroke-miterlimit="10" width="16.27" height="13.43"/>
	<rect x="184.787" y="234.38" clip-path="url(#SVGID_2_)" fill="#666666" width="16.27" height="11.64"/>
	
		<rect x="184.787" y="234.38" clip-path="url(#SVGID_2_)" fill="none" stroke="#FFFFFF" stroke-width="1.07" stroke-linejoin="round" stroke-miterlimit="10" width="16.27" height="11.64"/>
	<rect x="201.057" y="234.38" clip-path="url(#SVGID_2_)" fill="#666666" width="16.27" height="11.64"/>
	
		<rect x="201.057" y="234.38" clip-path="url(#SVGID_2_)" fill="none" stroke="#FFFFFF" stroke-width="1.07" stroke-linejoin="round" stroke-miterlimit="10" width="16.27" height="11.64"/>
	<rect x="217.327" y="236.17" clip-path="url(#SVGID_2_)" fill="#666666" width="16.27" height="9.85"/>
	
		<rect x="217.327" y="236.17" clip-path="url(#SVGID_2_)" fill="none" stroke="#FFFFFF" stroke-width="1.07" stroke-linejoin="round" stroke-miterlimit="10" width="16.27" height="9.85"/>
	<rect x="233.606" y="237.06" clip-path="url(#SVGID_2_)" fill="#666666" width="16.27" height="8.96"/>
	
		<rect x="233.606" y="237.06" clip-path="url(#SVGID_2_)" fill="none" stroke="#FFFFFF" stroke-width="1.07" stroke-linejoin="round" stroke-miterlimit="10" width="16.27" height="8.96"/>
	<rect x="249.876" y="230.8" clip-path="url(#SVGID_2_)" fill="#666666" width="16.27" height="15.22"/>
	
		<rect x="249.876" y="230.8" clip-path="url(#SVGID_2_)" fill="none" stroke="#FFFFFF" stroke-width="1.07" stroke-linejoin="round" stroke-miterlimit="10" width="16.27" height="15.22"/>
	<rect x="266.146" y="226.32" clip-path="url(#SVGID_2_)" fill="#666666" width="16.27" height="19.699"/>
	
		<rect x="266.146" y="226.32" clip-path="url(#SVGID_2_)" fill="none" stroke="#FFFFFF" stroke-width="1.07" stroke-linejoin="round" stroke-miterlimit="10" width="16.27" height="19.699"/>
	<rect x="282.417" y="219.15" clip-path="url(#SVGID_2_)" fill="#666666" width="16.27" height="26.869"/>
	
		<rect x="282.417" y="219.15" clip-path="url(#SVGID_2_)" fill="none" stroke="#FFFFFF" stroke-width="1.07" stroke-linejoin="round" stroke-miterlimit="10" width="16.27" height="26.869"/>
	<rect x="298.697" y="199.45" clip-path="url(#SVGID_2_)" fill="#666666" width="16.27" height="46.569"/>
	
		<rect x="298.697" y="199.45" clip-path="url(#SVGID_2_)" fill="none" stroke="#FFFFFF" stroke-width="1.07" stroke-linejoin="round" stroke-miterlimit="10" width="16.27" height="46.569"/>
	<rect x="314.966" y="210.2" clip-path="url(#SVGID_2_)" fill="#666666" width="16.271" height="35.819"/>
	
		<rect x="314.966" y="210.2" clip-path="url(#SVGID_2_)" fill="none" stroke="#FFFFFF" stroke-width="1.07" stroke-linejoin="round" stroke-miterlimit="10" width="16.271" height="35.819"/>
	<rect x="331.237" y="183.33" clip-path="url(#SVGID_2_)" fill="#666666" width="16.27" height="62.689"/>
	
		<rect x="331.237" y="183.33" clip-path="url(#SVGID_2_)" fill="none" stroke="#FFFFFF" stroke-width="1.07" stroke-linejoin="round" stroke-miterlimit="10" width="16.27" height="62.689"/>
	<rect x="347.506" y="199.45" clip-path="url(#SVGID_2_)" fill="#666666" width="16.271" height="46.569"/>
	
		<rect x="347.506" y="199.45" clip-path="url(#SVGID_2_)" fill="none" stroke="#FFFFFF" stroke-width="1.07" stroke-linejoin="round" stroke-miterlimit="10" width="16.271" height="46.569"/>
	<rect x="363.787" y="199.45" clip-path="url(#SVGID_2_)" fill="#666666" width="16.27" height="46.569"/>
	
		<rect x="363.787" y="199.45" clip-path="url(#SVGID_2_)" fill="none" stroke="#FFFFFF" stroke-width="1.07" stroke-linejoin="round" stroke-miterlimit="10" width="16.27" height="46.569"/>
	<rect x="380.056" y="213.78" clip-path="url(#SVGID_2_)" fill="#666666" width="16.271" height="32.239"/>
	
		<rect x="380.056" y="213.78" clip-path="url(#SVGID_2_)" fill="none" stroke="#FFFFFF" stroke-width="1.07" stroke-linejoin="round" stroke-miterlimit="10" width="16.271" height="32.239"/>
	<rect x="396.327" y="223.63" clip-path="url(#SVGID_2_)" fill="#666666" width="16.27" height="22.39"/>
	
		<rect x="396.327" y="223.63" clip-path="url(#SVGID_2_)" fill="none" stroke="#FFFFFF" stroke-width="1.07" stroke-linejoin="round" stroke-miterlimit="10" width="16.27" height="22.39"/>
	<rect x="412.596" y="216.47" clip-path="url(#SVGID_2_)" fill="#666666" width="16.271" height="29.55"/>
	
		<rect x="412.596" y="216.47" clip-path="url(#SVGID_2_)" fill="none" stroke="#FFFFFF" stroke-width="1.07" stroke-linejoin="round" stroke-miterlimit="10" width="16.271" height="29.55"/>
	<rect x="428.867" y="234.38" clip-path="url(#SVGID_2_)" fill="#666666" width="16.27" height="11.64"/>
	
		<rect x="428.867" y="234.38" clip-path="url(#SVGID_2_)" fill="none" stroke="#FFFFFF" stroke-width="1.07" stroke-linejoin="round" stroke-miterlimit="10" width="16.27" height="11.64"/>
	<rect x="445.147" y="243.33" clip-path="url(#SVGID_2_)" fill="#666666" width="16.27" height="2.689"/>
	
		<rect x="445.147" y="243.33" clip-path="url(#SVGID_2_)" fill="none" stroke="#FFFFFF" stroke-width="1.07" stroke-linejoin="round" stroke-miterlimit="10" width="16.27" height="2.689"/>
	<path clip-path="url(#SVGID_2_)" fill="#666666" d="M461.417,246.02h16.27H461.417z"/>
	
		<path clip-path="url(#SVGID_2_)" fill="none" stroke="#FFFFFF" stroke-width="1.07" stroke-linejoin="round" stroke-miterlimit="10" d="
		M461.417,246.02h16.27H461.417z"/>
	<rect x="477.686" y="244.23" clip-path="url(#SVGID_2_)" fill="#666666" width="16.271" height="1.789"/>
	
		<rect x="477.686" y="244.23" clip-path="url(#SVGID_2_)" fill="none" stroke="#FFFFFF" stroke-width="1.07" stroke-linejoin="round" stroke-miterlimit="10" width="16.271" height="1.789"/>
	<rect x="493.957" y="241.54" clip-path="url(#SVGID_2_)" fill="#666666" width="16.27" height="4.479"/>
	
		<rect x="493.957" y="241.54" clip-path="url(#SVGID_2_)" fill="none" stroke="#FFFFFF" stroke-width="1.07" stroke-linejoin="round" stroke-miterlimit="10" width="16.27" height="4.479"/>
	<path clip-path="url(#SVGID_2_)" fill="#666666" d="M510.237,246.02h16.27H510.237z"/>
	
		<path clip-path="url(#SVGID_2_)" fill="none" stroke="#FFFFFF" stroke-width="1.07" stroke-linejoin="round" stroke-miterlimit="10" d="
		M510.237,246.02h16.27H510.237z"/>
	<rect x="526.506" y="244.23" clip-path="url(#SVGID_2_)" fill="#666666" width="16.271" height="1.789"/>
	
		<rect x="526.506" y="244.23" clip-path="url(#SVGID_2_)" fill="none" stroke="#FFFFFF" stroke-width="1.07" stroke-linejoin="round" stroke-miterlimit="10" width="16.271" height="1.789"/>
	
		<polyline clip-path="url(#SVGID_2_)" fill="none" stroke="#483D8B" stroke-width="2.13" stroke-linejoin="round" stroke-miterlimit="1" points="
		55.707,106.94 57.146,91.47 58.597,79.53 60.037,70.94 61.477,65.4 62.926,62.59 64.367,62.13 65.807,63.7 67.256,66.94 
		68.696,71.56 70.137,77.26 71.586,83.8 73.026,90.95 74.466,98.52 75.917,106.35 77.356,114.3 78.796,122.26 80.247,130.12 
		81.687,137.82 83.126,145.3 84.577,152.5 86.017,159.4 87.457,165.97 88.907,172.19 90.347,178.06 91.787,183.59 93.236,188.76 
		94.676,193.58 96.117,198.07 97.566,202.24 99.006,206.1 100.446,209.67 101.896,212.96 103.336,215.98 104.776,218.76 
		106.227,221.31 107.667,223.64 109.106,225.77 110.557,227.71 111.997,229.48 113.437,231.1 114.887,232.56 116.327,233.89 
		117.767,235.1 119.216,236.19 120.657,237.18 122.097,238.08 123.546,238.89 124.986,239.62 126.426,240.28 127.876,240.87 
		129.316,241.41 130.756,241.89 132.207,242.32 133.646,242.71 135.086,243.06 136.537,243.38 137.977,243.66 139.417,243.91 
		140.867,244.14 142.307,244.34 143.747,244.52 145.196,244.68 146.637,244.83 148.077,244.96 149.526,245.08 150.966,245.18 
		152.407,245.27 153.856,245.35 155.296,245.43 156.736,245.49 158.187,245.55 159.626,245.61 161.066,245.65 162.517,245.69 
		163.957,245.73 165.396,245.76 166.847,245.79 168.287,245.82 169.727,245.84 171.176,245.86 172.617,245.88 174.057,245.9 
		175.506,245.91 176.946,245.92 178.387,245.94 179.836,245.95 181.276,245.95 182.716,245.96 184.167,245.97 185.606,245.98 
		187.046,245.98 188.497,245.99 189.937,245.99 191.376,245.99 192.827,246 194.267,246 195.707,246 197.157,246.01 198.597,246.01 
		200.037,246.01 201.486,246.01 202.926,246.01 204.367,246.01 205.816,246.02 207.256,246.02 208.696,246.02 210.146,246.02 
		211.586,246.02 213.026,246.02 214.477,246.02 215.917,246.02 217.356,246.02 218.807,246.02 220.247,246.02 221.687,246.02 
		223.137,246.02 224.577,246.02 226.017,246.02 227.466,246.02 228.907,246.02 230.347,246.02 231.796,246.02 233.236,246.02 
		234.676,246.02 236.126,246.02 237.566,246.02 239.006,246.02 240.457,246.02 241.896,246.02 243.336,246.02 244.787,246.02 
		246.227,246.02 247.667,246.02 249.117,246.02 250.557,246.02 251.997,246.02 253.446,246.02 254.887,246.02 256.327,246.02 
		257.776,246.02 259.216,246.02 260.657,246.02 262.106,246.02 263.546,246.02 264.986,246.02 266.437,246.02 267.876,246.02 
		269.316,246.02 270.767,246.02 272.207,246.02 273.646,246.02 275.097,246.02 276.537,246.02 277.977,246.02 279.426,246.02 
		280.867,246.02 282.307,246.02 283.756,246.02 285.197,246.02 286.636,246.02 288.086,246.02 289.527,246.02 290.966,246.02 
		292.417,246.02 293.857,246.02 295.296,246.02 296.747,246.02 298.186,246.02 299.626,246.02 301.077,246.02 302.516,246.02 
		303.957,246.02 305.407,246.02 306.846,246.02 308.287,246.02 309.737,246.02 311.176,246.02 312.617,246.02 314.067,246.02 
		315.506,246.02 316.947,246.02 318.397,246.02 319.836,246.02 321.287,246.02 322.726,246.02 324.167,246.02 325.617,246.02 
		327.056,246.02 328.497,246.02 329.947,246.02 331.386,246.02 332.827,246.02 334.277,246.02 335.716,246.02 337.157,246.02 
		338.607,246.02 340.046,246.02 341.487,246.02 342.936,246.02 344.376,246.02 345.817,246.02 347.266,246.02 348.707,246.02 
		350.147,246.02 351.596,246.02 353.037,246.02 354.476,246.02 355.926,246.02 357.367,246.02 358.806,246.02 360.256,246.02 
		361.697,246.02 363.136,246.02 364.586,246.02 366.027,246.02 367.466,246.02 368.917,246.02 370.357,246.02 371.796,246.02 
		373.247,246.02 374.686,246.02 376.126,246.02 377.577,246.02 379.016,246.02 380.457,246.02 381.907,246.02 383.346,246.02 
		384.787,246.02 386.237,246.02 387.676,246.02 389.117,246.02 390.567,246.02 392.006,246.02 393.447,246.02 394.897,246.02 
		396.336,246.02 397.777,246.02 399.226,246.02 400.667,246.02 402.107,246.02 403.556,246.02 404.997,246.02 406.436,246.02 
		407.886,246.02 409.327,246.02 410.766,246.02 412.216,246.02 413.657,246.02 415.096,246.02 416.546,246.02 417.987,246.02 
		419.426,246.02 420.876,246.02 422.317,246.02 423.756,246.02 425.207,246.02 426.647,246.02 428.086,246.02 429.537,246.02 
		430.976,246.02 432.417,246.02 433.867,246.02 435.306,246.02 436.747,246.02 438.197,246.02 439.636,246.02 441.077,246.02 
		442.527,246.02 443.966,246.02 445.407,246.02 446.857,246.02 448.296,246.02 449.737,246.02 451.186,246.02 452.626,246.02 
		454.067,246.02 455.516,246.02 456.957,246.02 458.397,246.02 459.846,246.02 461.287,246.02 462.726,246.02 464.176,246.02 
		465.617,246.02 467.056,246.02 468.506,246.02 469.947,246.02 471.386,246.02 472.836,246.02 474.277,246.02 475.716,246.02 
		477.167,246.02 478.607,246.02 480.046,246.02 481.497,246.02 482.936,246.02 484.376,246.02 485.827,246.02 487.266,246.02 
		488.707,246.02 490.157,246.02 491.596,246.02 493.037,246.02 494.487,246.02 495.926,246.02 497.367,246.02 498.817,246.02 
		500.256,246.02 501.697,246.02 503.147,246.02 504.586,246.02 506.027,246.02 507.476,246.02 508.917,246.02 510.357,246.02 
		511.806,246.02 513.247,246.02 514.686,246.02 516.136,246.02 517.577,246.02 519.016,246.02 520.466,246.02 521.907,246.02 
		523.346,246.02 524.796,246.02 526.237,246.02 	"/>
	
		<polyline clip-path="url(#SVGID_2_)" fill="none" stroke="#483D8B" stroke-width="2.13" stroke-linejoin="round" stroke-miterlimit="1" points="
		55.707,246.02 57.146,246.02 58.597,246.02 60.037,246.02 61.477,246.02 62.926,246.02 64.367,246.02 65.807,246.02 67.256,246.02 
		68.696,246.02 70.137,246.02 71.586,246.02 73.026,246.02 74.466,246.02 75.917,246.02 77.356,246.02 78.796,246.02 80.247,246.02 
		81.687,246.02 83.126,246.02 84.577,246.02 86.017,246.02 87.457,246.02 88.907,246.02 90.347,246.02 91.787,246.02 93.236,246.02 
		94.676,246.02 96.117,246.02 97.566,246.02 99.006,246.02 100.446,246.02 101.896,246.02 103.336,246.02 104.776,246.02 
		106.227,246.02 107.667,246.01 109.106,246.01 110.557,246.01 111.997,246.01 113.437,246 114.887,246 116.327,245.99 
		117.767,245.99 119.216,245.98 120.657,245.97 122.097,245.96 123.546,245.95 124.986,245.94 126.426,245.92 127.876,245.91 
		129.316,245.89 130.756,245.87 132.207,245.84 133.646,245.82 135.086,245.79 136.537,245.76 137.977,245.72 139.417,245.68 
		140.867,245.63 142.307,245.59 143.747,245.53 145.196,245.47 146.637,245.41 148.077,245.34 149.526,245.26 150.966,245.18 
		152.407,245.09 153.856,245 155.296,244.89 156.736,244.78 158.187,244.66 159.626,244.54 161.066,244.4 162.517,244.26 
		163.957,244.1 165.396,243.94 166.847,243.76 168.287,243.58 169.727,243.39 171.176,243.18 172.617,242.97 174.057,242.74 
		175.506,242.5 176.946,242.25 178.387,241.99 179.836,241.72 181.276,241.43 182.716,241.13 184.167,240.82 185.606,240.5 
		187.046,240.17 188.497,239.82 189.937,239.47 191.376,239.1 192.827,238.71 194.267,238.32 195.707,237.91 197.157,237.5 
		198.597,237.07 200.037,236.63 201.486,236.18 202.926,235.72 204.367,235.24 205.816,234.76 207.256,234.27 208.696,233.77 
		210.146,233.26 211.586,232.74 213.026,232.21 214.477,231.68 215.917,231.13 217.356,230.58 218.807,230.03 220.247,229.47 
		221.687,228.9 223.137,228.33 224.577,227.75 226.017,227.17 227.466,226.59 228.907,226.01 230.347,225.42 231.796,224.83 
		233.236,224.25 234.676,223.66 236.126,223.07 237.566,222.48 239.006,221.9 240.457,221.32 241.896,220.74 243.336,220.16 
		244.787,219.59 246.227,219.03 247.667,218.47 249.117,217.91 250.557,217.36 251.997,216.82 253.446,216.29 254.887,215.77 
		256.327,215.25 257.776,214.74 259.216,214.25 260.657,213.76 262.106,213.28 263.546,212.82 264.986,212.36 266.437,211.92 
		267.876,211.49 269.316,211.08 270.767,210.67 272.207,210.29 273.646,209.91 275.097,209.55 276.537,209.2 277.977,208.87 
		279.426,208.55 280.867,208.25 282.307,207.96 283.756,207.68 285.197,207.43 286.636,207.19 288.086,206.96 289.527,206.75 
		290.966,206.56 292.417,206.38 293.857,206.21 295.296,206.07 296.747,205.94 298.186,205.82 299.626,205.72 301.077,205.64 
		302.516,205.57 303.957,205.52 305.407,205.49 306.846,205.47 308.287,205.46 309.737,205.47 311.176,205.49 312.617,205.53 
		314.067,205.59 315.506,205.66 316.947,205.74 318.397,205.83 319.836,205.94 321.287,206.06 322.726,206.2 324.167,206.35 
		325.617,206.51 327.056,206.68 328.497,206.87 329.947,207.06 331.386,207.27 332.827,207.49 334.277,207.72 335.716,207.96 
		337.157,208.21 338.607,208.47 340.046,208.74 341.487,209.02 342.936,209.3 344.376,209.6 345.817,209.9 347.266,210.21 
		348.707,210.53 350.147,210.85 351.596,211.19 353.037,211.52 354.476,211.87 355.926,212.22 357.367,212.57 358.806,212.93 
		360.256,213.3 361.697,213.66 363.136,214.04 364.586,214.41 366.027,214.79 367.466,215.18 368.917,215.56 370.357,215.95 
		371.796,216.34 373.247,216.73 374.686,217.13 376.126,217.52 377.577,217.92 379.016,218.32 380.457,218.72 381.907,219.12 
		383.346,219.52 384.787,219.91 386.237,220.31 387.676,220.71 389.117,221.11 390.567,221.51 392.006,221.9 393.447,222.29 
		394.897,222.69 396.336,223.08 397.777,223.47 399.226,223.85 400.667,224.24 402.107,224.62 403.556,225 404.997,225.38 
		406.436,225.75 407.886,226.13 409.327,226.49 410.766,226.86 412.216,227.22 413.657,227.58 415.096,227.94 416.546,228.29 
		417.987,228.64 419.426,228.98 420.876,229.32 422.317,229.66 423.756,229.99 425.207,230.32 426.647,230.65 428.086,230.97 
		429.537,231.29 430.976,231.6 432.417,231.91 433.867,232.21 435.306,232.51 436.747,232.81 438.197,233.1 439.636,233.39 
		441.077,233.67 442.527,233.95 443.966,234.22 445.407,234.49 446.857,234.76 448.296,235.02 449.737,235.27 451.186,235.53 
		452.626,235.77 454.067,236.02 455.516,236.26 456.957,236.49 458.397,236.72 459.846,236.95 461.287,237.17 462.726,237.39 
		464.176,237.6 465.617,237.81 467.056,238.02 468.506,238.22 469.947,238.42 471.386,238.61 472.836,238.8 474.277,238.99 
		475.716,239.17 477.167,239.35 478.607,239.52 480.046,239.7 481.497,239.86 482.936,240.03 484.376,240.19 485.827,240.34 
		487.266,240.5 488.707,240.65 490.157,240.79 491.596,240.94 493.037,241.08 494.487,241.21 495.926,241.35 497.367,241.48 
		498.817,241.6 500.256,241.73 501.697,241.85 503.147,241.97 504.586,242.08 506.027,242.19 507.476,242.3 508.917,242.41 
		510.357,242.52 511.806,242.62 513.247,242.72 514.686,242.81 516.136,242.91 517.577,243 519.016,243.09 520.466,243.18 
		521.907,243.26 523.346,243.34 524.796,243.42 526.237,243.5 	"/>
	
		<line clip-path="url(#SVGID_2_)" fill="none" stroke="#B22222" stroke-width="2.13" stroke-linejoin="round" stroke-miterlimit="10" stroke-dasharray="14.94,6.4" x1="152.646" y1="257.62" x2="152.646" y2="2.48"/>
	
		<rect x="30.196" y="2.48" clip-path="url(#SVGID_2_)" fill="none" stroke="#333333" stroke-width="1.07" stroke-linecap="round" stroke-linejoin="round" stroke-miterlimit="10" width="536.99" height="255.14"/>
</g>
<g>
	<path fill="#4D4D4D" d="M18.206,246.037c0-1.016,0.104-1.832,0.313-2.451s0.52-1.098,0.932-1.434s0.931-0.504,1.556-0.504
		c0.461,0,0.865,0.094,1.213,0.279s0.635,0.453,0.861,0.803s0.404,0.775,0.533,1.277s0.193,1.178,0.193,2.029
		c0,1.008-0.104,1.822-0.311,2.441s-0.517,1.098-0.929,1.436s-0.933,0.506-1.562,0.506c-0.828,0-1.479-0.297-1.951-0.891
		C18.489,248.814,18.206,247.65,18.206,246.037z M19.29,246.037c0,1.41,0.165,2.35,0.495,2.816s0.737,0.699,1.222,0.699
		s0.892-0.234,1.222-0.703s0.495-1.406,0.495-2.813c0-1.414-0.165-2.354-0.495-2.818s-0.741-0.697-1.233-0.697
		c-0.484,0-0.871,0.205-1.16,0.615C19.471,243.66,19.29,244.627,19.29,246.037z"/>
</g>
<g>
	<path fill="#4D4D4D" d="M18.211,189.057l1.055-0.141c0.121,0.598,0.327,1.027,0.618,1.291s0.646,0.396,1.063,0.396
		c0.496,0,0.915-0.172,1.257-0.516s0.513-0.77,0.513-1.277c0-0.484-0.158-0.885-0.475-1.199s-0.719-0.471-1.207-0.471
		c-0.199,0-0.447,0.039-0.744,0.117l0.117-0.926c0.07,0.008,0.127,0.012,0.17,0.012c0.449,0,0.854-0.117,1.213-0.352
		s0.539-0.596,0.539-1.084c0-0.387-0.131-0.707-0.393-0.961s-0.6-0.381-1.014-0.381c-0.41,0-0.752,0.129-1.025,0.387
		s-0.449,0.645-0.527,1.16l-1.055-0.188c0.129-0.707,0.422-1.256,0.879-1.645s1.025-0.582,1.705-0.582c0.469,0,0.9,0.1,1.295,0.301
		s0.696,0.477,0.905,0.824s0.313,0.717,0.313,1.107c0,0.371-0.1,0.709-0.299,1.014s-0.494,0.547-0.885,0.727
		c0.508,0.117,0.902,0.359,1.184,0.729s0.422,0.832,0.422,1.387c0,0.75-0.273,1.385-0.82,1.906s-1.238,0.783-2.074,0.783
		c-0.754,0-1.38-0.225-1.878-0.674S18.282,189.771,18.211,189.057z"/>
</g>
<g>
	<path fill="#4D4D4D" d="M23.678,125.897l-1.049,0.082c-0.094-0.414-0.227-0.715-0.398-0.902c-0.285-0.301-0.637-0.451-1.055-0.451
		c-0.336,0-0.631,0.094-0.885,0.281c-0.332,0.242-0.594,0.596-0.785,1.061s-0.291,1.127-0.299,1.986
		c0.254-0.387,0.564-0.674,0.932-0.861s0.752-0.281,1.154-0.281c0.703,0,1.302,0.259,1.796,0.776s0.741,1.187,0.741,2.007
		c0,0.539-0.116,1.04-0.349,1.503s-0.552,0.817-0.958,1.063s-0.867,0.369-1.383,0.369c-0.879,0-1.596-0.323-2.15-0.97
		s-0.832-1.712-0.832-3.196c0-1.66,0.307-2.867,0.92-3.621c0.535-0.656,1.256-0.984,2.162-0.984c0.676,0,1.229,0.189,1.661,0.568
		S23.592,125.229,23.678,125.897z M19.372,129.6c0,0.363,0.077,0.711,0.231,1.043s0.37,0.585,0.647,0.759s0.568,0.261,0.873,0.261
		c0.445,0,0.828-0.18,1.148-0.539s0.48-0.848,0.48-1.465c0-0.594-0.158-1.062-0.475-1.403s-0.715-0.513-1.195-0.513
		c-0.477,0-0.881,0.171-1.213,0.513S19.372,129.045,19.372,129.6z"/>
</g>
<g>
	<path fill="#4D4D4D" d="M18.364,71.457l1.014-0.094c0.086,0.477,0.25,0.822,0.492,1.037s0.553,0.322,0.932,0.322
		c0.324,0,0.608-0.074,0.853-0.223s0.444-0.347,0.601-0.595s0.287-0.583,0.393-1.005s0.158-0.852,0.158-1.289
		c0-0.047-0.002-0.117-0.006-0.211c-0.211,0.336-0.499,0.608-0.864,0.817s-0.761,0.313-1.187,0.313
		c-0.711,0-1.313-0.258-1.805-0.773s-0.738-1.195-0.738-2.039c0-0.871,0.257-1.572,0.771-2.104s1.157-0.797,1.931-0.797
		c0.559,0,1.069,0.15,1.532,0.451s0.814,0.729,1.055,1.286s0.36,1.362,0.36,2.417c0,1.098-0.119,1.972-0.357,2.622
		s-0.593,1.146-1.063,1.485s-1.022,0.51-1.655,0.51c-0.672,0-1.221-0.187-1.646-0.56S18.45,72.133,18.364,71.457z M22.682,67.666
		c0-0.605-0.161-1.086-0.483-1.441s-0.71-0.533-1.163-0.533c-0.469,0-0.877,0.191-1.225,0.574s-0.521,0.879-0.521,1.488
		c0,0.547,0.165,0.991,0.495,1.333s0.737,0.513,1.222,0.513c0.488,0,0.89-0.171,1.204-0.513S22.682,68.271,22.682,67.666z"/>
</g>
<g>
	<path fill="#4D4D4D" d="M15.504,14.494H14.45V7.773c-0.254,0.242-0.587,0.484-0.999,0.727s-0.782,0.424-1.11,0.545v-1.02
		c0.59-0.277,1.105-0.613,1.547-1.008s0.754-0.777,0.938-1.148h0.68V14.494z"/>
	<path fill="#4D4D4D" d="M23.749,13.48v1.014h-5.678c-0.008-0.254,0.033-0.498,0.123-0.732c0.145-0.387,0.376-0.768,0.694-1.143
		s0.778-0.809,1.38-1.301c0.934-0.766,1.564-1.372,1.893-1.819s0.492-0.87,0.492-1.269c0-0.418-0.149-0.771-0.448-1.058
		s-0.688-0.431-1.169-0.431c-0.508,0-0.914,0.152-1.219,0.457s-0.459,0.727-0.463,1.266L18.27,8.353
		c0.074-0.809,0.354-1.425,0.838-1.849s1.135-0.636,1.951-0.636c0.824,0,1.477,0.229,1.957,0.686s0.721,1.023,0.721,1.699
		c0,0.344-0.07,0.682-0.211,1.014s-0.374,0.682-0.7,1.049s-0.868,0.871-1.626,1.512c-0.633,0.531-1.039,0.892-1.219,1.081
		s-0.328,0.38-0.445,0.571H23.749z"/>
</g>
<line fill="none" stroke="#333333" stroke-width="1.07" stroke-linejoin="round" stroke-miterlimit="10" x1="27.457" y1="246.02" x2="30.196" y2="246.02"/>
<line fill="none" stroke="#333333" stroke-width="1.07" stroke-linejoin="round" stroke-miterlimit="10" x1="27.457" y1="187.08" x2="30.196" y2="187.08"/>
<line fill="none" stroke="#333333" stroke-width="1.07" stroke-linejoin="round" stroke-miterlimit="10" x1="27.457" y1="128.14" x2="30.196" y2="128.14"/>
<line fill="none" stroke="#333333" stroke-width="1.07" stroke-linejoin="round" stroke-miterlimit="10" x1="27.457" y1="69.19" x2="30.196" y2="69.19"/>
<line fill="none" stroke="#333333" stroke-width="1.07" stroke-linejoin="round" stroke-miterlimit="10" x1="27.457" y1="10.25" x2="30.196" y2="10.25"/>
<line fill="none" stroke="#333333" stroke-width="1.07" stroke-linejoin="round" stroke-miterlimit="10" x1="46.466" y1="260.36" x2="46.466" y2="257.62"/>
<line fill="none" stroke="#333333" stroke-width="1.07" stroke-linejoin="round" stroke-miterlimit="10" x1="190.807" y1="260.36" x2="190.807" y2="257.62"/>
<line fill="none" stroke="#333333" stroke-width="1.07" stroke-linejoin="round" stroke-miterlimit="10" x1="335.136" y1="260.36" x2="335.136" y2="257.62"/>
<line fill="none" stroke="#333333" stroke-width="1.07" stroke-linejoin="round" stroke-miterlimit="10" x1="479.476" y1="260.36" x2="479.476" y2="257.62"/>
<g>
	<path fill="#4D4D4D" d="M38.072,266.396c0-1.016,0.104-1.833,0.313-2.452s0.52-1.097,0.932-1.433s0.931-0.504,1.556-0.504
		c0.461,0,0.865,0.093,1.213,0.278s0.635,0.453,0.861,0.803s0.404,0.775,0.533,1.277s0.193,1.179,0.193,2.03
		c0,1.008-0.104,1.821-0.311,2.44s-0.517,1.098-0.929,1.436s-0.933,0.507-1.562,0.507c-0.828,0-1.479-0.297-1.951-0.891
		C38.355,269.174,38.072,268.01,38.072,266.396z M39.156,266.396c0,1.41,0.165,2.349,0.495,2.815s0.737,0.7,1.222,0.7
		s0.892-0.234,1.222-0.703s0.495-1.406,0.495-2.813c0-1.414-0.165-2.354-0.495-2.818s-0.741-0.697-1.233-0.697
		c-0.484,0-0.871,0.205-1.16,0.615C39.337,264.02,39.156,264.986,39.156,266.396z"/>
	<path fill="#4D4D4D" d="M45.337,270.633v-1.201h1.201v1.201H45.337z"/>
	<path fill="#4D4D4D" d="M48.08,266.396c0-1.016,0.104-1.833,0.313-2.452s0.52-1.097,0.932-1.433s0.931-0.504,1.556-0.504
		c0.461,0,0.865,0.093,1.213,0.278s0.635,0.453,0.861,0.803s0.404,0.775,0.533,1.277s0.193,1.179,0.193,2.03
		c0,1.008-0.104,1.821-0.311,2.44s-0.517,1.098-0.929,1.436s-0.933,0.507-1.562,0.507c-0.828,0-1.479-0.297-1.951-0.891
		C48.363,269.174,48.08,268.01,48.08,266.396z M49.164,266.396c0,1.41,0.165,2.349,0.495,2.815s0.737,0.7,1.222,0.7
		s0.892-0.234,1.222-0.703s0.495-1.406,0.495-2.813c0-1.414-0.165-2.354-0.495-2.818s-0.741-0.697-1.233-0.697
		c-0.484,0-0.871,0.205-1.16,0.615C49.345,264.02,49.164,264.986,49.164,266.396z"/>
</g>
<g>
	<path fill="#4D4D4D" d="M182.412,266.396c0-1.016,0.104-1.833,0.313-2.452s0.52-1.097,0.932-1.433s0.931-0.504,1.556-0.504
		c0.461,0,0.865,0.093,1.213,0.278s0.635,0.453,0.861,0.803s0.404,0.775,0.533,1.277s0.193,1.179,0.193,2.03
		c0,1.008-0.104,1.821-0.311,2.44s-0.517,1.098-0.929,1.436s-0.933,0.507-1.562,0.507c-0.828,0-1.479-0.297-1.951-0.891
		C182.695,269.174,182.412,268.01,182.412,266.396z M183.496,266.396c0,1.41,0.165,2.349,0.495,2.815s0.737,0.7,1.222,0.7
		s0.892-0.234,1.222-0.703s0.495-1.406,0.495-2.813c0-1.414-0.165-2.354-0.495-2.818s-0.741-0.697-1.233-0.697
		c-0.484,0-0.871,0.205-1.16,0.615C183.677,264.02,183.496,264.986,183.496,266.396z"/>
	<path fill="#4D4D4D" d="M189.677,270.633v-1.201h1.201v1.201H189.677z"/>
	<path fill="#4D4D4D" d="M197.962,269.619v1.014h-5.678c-0.008-0.254,0.033-0.498,0.123-0.732c0.145-0.387,0.376-0.768,0.694-1.143
		s0.778-0.809,1.38-1.301c0.934-0.766,1.564-1.372,1.893-1.819s0.492-0.87,0.492-1.269c0-0.418-0.149-0.771-0.448-1.058
		s-0.688-0.431-1.169-0.431c-0.508,0-0.914,0.152-1.219,0.457s-0.459,0.727-0.463,1.266l-1.084-0.111
		c0.074-0.809,0.354-1.425,0.838-1.849s1.135-0.636,1.951-0.636c0.824,0,1.477,0.229,1.957,0.686s0.721,1.023,0.721,1.699
		c0,0.344-0.07,0.682-0.211,1.014s-0.374,0.682-0.7,1.049s-0.868,0.871-1.626,1.512c-0.633,0.531-1.039,0.892-1.219,1.081
		s-0.328,0.38-0.445,0.571H197.962z"/>
</g>
<g>
	<path fill="#4D4D4D" d="M326.742,266.396c0-1.016,0.104-1.833,0.313-2.452s0.52-1.097,0.932-1.433s0.931-0.504,1.556-0.504
		c0.461,0,0.865,0.093,1.213,0.278s0.635,0.453,0.861,0.803s0.404,0.775,0.533,1.277s0.193,1.179,0.193,2.03
		c0,1.008-0.104,1.821-0.311,2.44s-0.517,1.098-0.929,1.436s-0.933,0.507-1.562,0.507c-0.828,0-1.479-0.297-1.951-0.891
		C327.025,269.174,326.742,268.01,326.742,266.396z M327.826,266.396c0,1.41,0.165,2.349,0.495,2.815s0.737,0.7,1.222,0.7
		s0.892-0.234,1.222-0.703s0.495-1.406,0.495-2.813c0-1.414-0.165-2.354-0.495-2.818s-0.741-0.697-1.233-0.697
		c-0.484,0-0.871,0.205-1.16,0.615C328.007,264.02,327.826,264.986,327.826,266.396z"/>
	<path fill="#4D4D4D" d="M334.007,270.633v-1.201h1.201v1.201H334.007z"/>
	<path fill="#4D4D4D" d="M340.13,270.633v-2.057h-3.727v-0.967l3.92-5.566h0.861v5.566h1.16v0.967h-1.16v2.057H340.13z
		 M340.13,267.609v-3.873l-2.689,3.873H340.13z"/>
</g>
<g>
	<path fill="#4D4D4D" d="M471.082,266.396c0-1.016,0.104-1.833,0.313-2.452s0.52-1.097,0.932-1.433s0.931-0.504,1.556-0.504
		c0.461,0,0.865,0.093,1.213,0.278s0.635,0.453,0.861,0.803s0.404,0.775,0.533,1.277s0.193,1.179,0.193,2.03
		c0,1.008-0.104,1.821-0.311,2.44s-0.517,1.098-0.929,1.436s-0.933,0.507-1.562,0.507c-0.828,0-1.479-0.297-1.951-0.891
		C471.365,269.174,471.082,268.01,471.082,266.396z M472.166,266.396c0,1.41,0.165,2.349,0.495,2.815s0.737,0.7,1.222,0.7
		s0.892-0.234,1.222-0.703s0.495-1.406,0.495-2.813c0-1.414-0.165-2.354-0.495-2.818s-0.741-0.697-1.233-0.697
		c-0.484,0-0.871,0.205-1.16,0.615C472.347,264.02,472.166,264.986,472.166,266.396z"/>
	<path fill="#4D4D4D" d="M478.347,270.633v-1.201h1.201v1.201H478.347z"/>
	<path fill="#4D4D4D" d="M486.562,264.146l-1.049,0.082c-0.094-0.414-0.227-0.715-0.398-0.902c-0.285-0.301-0.637-0.451-1.055-0.451
		c-0.336,0-0.631,0.094-0.885,0.281c-0.332,0.242-0.594,0.596-0.785,1.061s-0.291,1.127-0.299,1.986
		c0.254-0.387,0.564-0.674,0.932-0.861s0.752-0.281,1.154-0.281c0.703,0,1.302,0.259,1.796,0.776s0.741,1.187,0.741,2.007
		c0,0.539-0.116,1.04-0.349,1.503s-0.552,0.817-0.958,1.063s-0.867,0.369-1.383,0.369c-0.879,0-1.596-0.323-2.15-0.97
		s-0.832-1.712-0.832-3.196c0-1.66,0.307-2.867,0.92-3.621c0.535-0.656,1.256-0.984,2.162-0.984c0.676,0,1.229,0.189,1.661,0.568
		S486.476,263.479,486.562,264.146z M482.255,267.85c0,0.363,0.077,0.711,0.231,1.043s0.37,0.585,0.647,0.759
		s0.568,0.261,0.873,0.261c0.445,0,0.828-0.18,1.148-0.539s0.48-0.848,0.48-1.465c0-0.594-0.158-1.062-0.475-1.403
		s-0.715-0.513-1.195-0.513c-0.477,0-0.881,0.171-1.213,0.513S482.255,267.295,482.255,267.85z"/>
</g>
<g>
	<path d="M222.766,281.853v-8.59h1.137v3.527h4.465v-3.527h1.137v8.59h-1.137v-4.049h-4.465v4.049H222.766z"/>
	<path d="M235.323,281.085c-0.391,0.332-0.767,0.566-1.128,0.703s-0.749,0.205-1.163,0.205c-0.684,0-1.209-0.167-1.576-0.501
		s-0.551-0.761-0.551-1.28c0-0.305,0.069-0.583,0.208-0.835s0.32-0.454,0.545-0.606s0.478-0.268,0.759-0.346
		c0.207-0.055,0.52-0.107,0.938-0.158c0.852-0.102,1.479-0.223,1.881-0.363c0.004-0.145,0.006-0.236,0.006-0.275
		c0-0.43-0.1-0.732-0.299-0.908c-0.27-0.238-0.67-0.357-1.201-0.357c-0.496,0-0.862,0.087-1.099,0.261s-0.411,0.481-0.524,0.923
		l-1.031-0.141c0.094-0.441,0.248-0.798,0.463-1.069s0.525-0.48,0.932-0.627s0.877-0.22,1.412-0.22c0.531,0,0.963,0.063,1.295,0.188
		s0.576,0.282,0.732,0.472s0.266,0.429,0.328,0.718c0.035,0.18,0.053,0.504,0.053,0.973v1.406c0,0.98,0.022,1.601,0.067,1.86
		s0.134,0.509,0.267,0.747h-1.102C235.424,281.634,235.354,281.378,235.323,281.085z M235.235,278.729
		c-0.383,0.156-0.957,0.289-1.723,0.398c-0.434,0.063-0.74,0.133-0.92,0.211s-0.318,0.192-0.416,0.343s-0.146,0.317-0.146,0.501
		c0,0.281,0.106,0.516,0.319,0.703s0.524,0.281,0.935,0.281c0.406,0,0.768-0.089,1.084-0.267s0.549-0.421,0.697-0.729
		c0.113-0.238,0.17-0.59,0.17-1.055V278.729z"/>
	<path d="M237.936,281.853v-6.223h0.943v0.873c0.195-0.305,0.455-0.55,0.779-0.735s0.693-0.278,1.107-0.278
		c0.461,0,0.839,0.096,1.134,0.287s0.503,0.459,0.624,0.803c0.492-0.727,1.133-1.09,1.922-1.09c0.617,0,1.092,0.171,1.424,0.513
		s0.498,0.868,0.498,1.579v4.271h-1.049v-3.92c0-0.422-0.034-0.726-0.103-0.911s-0.192-0.335-0.372-0.448s-0.391-0.17-0.633-0.17
		c-0.438,0-0.801,0.146-1.09,0.437s-0.434,0.757-0.434,1.397v3.615h-1.055v-4.043c0-0.469-0.086-0.82-0.258-1.055
		s-0.453-0.352-0.844-0.352c-0.297,0-0.571,0.078-0.823,0.234s-0.435,0.385-0.548,0.686s-0.17,0.734-0.17,1.301v3.229H237.936z"/>
	<path d="M247.932,281.853v-6.223h0.943v0.873c0.195-0.305,0.455-0.55,0.779-0.735s0.693-0.278,1.107-0.278
		c0.461,0,0.839,0.096,1.134,0.287s0.503,0.459,0.624,0.803c0.492-0.727,1.133-1.09,1.922-1.09c0.617,0,1.092,0.171,1.424,0.513
		s0.498,0.868,0.498,1.579v4.271h-1.049v-3.92c0-0.422-0.034-0.726-0.103-0.911s-0.192-0.335-0.372-0.448s-0.391-0.17-0.633-0.17
		c-0.438,0-0.801,0.146-1.09,0.437s-0.434,0.757-0.434,1.397v3.615h-1.055v-4.043c0-0.469-0.086-0.82-0.258-1.055
		s-0.453-0.352-0.844-0.352c-0.297,0-0.571,0.078-0.823,0.234s-0.435,0.385-0.548,0.686s-0.17,0.734-0.17,1.301v3.229H247.932z"/>
	<path d="M257.934,274.476v-1.213h1.055v1.213H257.934z M257.934,281.853v-6.223h1.055v6.223H257.934z"/>
	<path d="M260.594,281.853v-6.223h0.949v0.885c0.457-0.684,1.117-1.025,1.98-1.025c0.375,0,0.72,0.067,1.034,0.202
		s0.55,0.312,0.706,0.53s0.266,0.479,0.328,0.779c0.039,0.195,0.059,0.537,0.059,1.025v3.826h-1.055v-3.785
		c0-0.43-0.041-0.751-0.123-0.964s-0.228-0.383-0.437-0.51s-0.454-0.19-0.735-0.19c-0.449,0-0.837,0.143-1.163,0.428
		s-0.489,0.826-0.489,1.623v3.398H260.594z"/>
	<path d="M267.075,282.368l1.025,0.152c0.043,0.316,0.162,0.547,0.357,0.691c0.262,0.195,0.619,0.293,1.072,0.293
		c0.488,0,0.865-0.098,1.131-0.293s0.445-0.469,0.539-0.82c0.055-0.215,0.08-0.666,0.076-1.354
		c-0.461,0.543-1.035,0.814-1.723,0.814c-0.855,0-1.518-0.309-1.986-0.926s-0.703-1.357-0.703-2.221
		c0-0.594,0.107-1.142,0.322-1.644s0.526-0.89,0.935-1.163s0.888-0.41,1.438-0.41c0.734,0,1.34,0.297,1.816,0.891v-0.75h0.973v5.379
		c0,0.969-0.099,1.655-0.296,2.06s-0.51,0.724-0.938,0.958s-0.954,0.352-1.579,0.352c-0.742,0-1.342-0.167-1.799-0.501
		S267.059,283.04,267.075,282.368z M267.948,278.63c0,0.816,0.162,1.412,0.486,1.787s0.73,0.563,1.219,0.563
		c0.484,0,0.891-0.187,1.219-0.56s0.492-0.958,0.492-1.755c0-0.762-0.169-1.336-0.507-1.723s-0.745-0.58-1.222-0.58
		c-0.469,0-0.867,0.19-1.195,0.571S267.948,277.88,267.948,278.63z"/>
	<path d="M281.313,281.853v-0.785c-0.395,0.617-0.975,0.926-1.74,0.926c-0.496,0-0.952-0.137-1.368-0.41s-0.738-0.655-0.967-1.146
		s-0.343-1.054-0.343-1.69c0-0.621,0.104-1.185,0.311-1.69s0.518-0.894,0.932-1.163s0.877-0.404,1.389-0.404
		c0.375,0,0.709,0.079,1.002,0.237s0.531,0.364,0.715,0.618v-3.082h1.049v8.59H281.313z M277.979,278.747
		c0,0.797,0.168,1.393,0.504,1.787s0.732,0.592,1.189,0.592c0.461,0,0.853-0.188,1.175-0.565s0.483-0.952,0.483-1.726
		c0-0.852-0.164-1.477-0.492-1.875s-0.732-0.598-1.213-0.598c-0.469,0-0.86,0.191-1.175,0.574S277.979,277.923,277.979,278.747z"/>
	<path d="M283.956,274.476v-1.213h1.055v1.213H283.956z M283.956,281.853v-6.223h1.055v6.223H283.956z"/>
	<path d="M286.194,279.995l1.043-0.164c0.059,0.418,0.222,0.738,0.489,0.961s0.642,0.334,1.122,0.334
		c0.484,0,0.844-0.099,1.078-0.296s0.352-0.429,0.352-0.694c0-0.238-0.104-0.426-0.311-0.563c-0.145-0.094-0.504-0.213-1.078-0.357
		c-0.773-0.195-1.31-0.364-1.608-0.507s-0.525-0.34-0.68-0.592s-0.231-0.53-0.231-0.835c0-0.277,0.063-0.534,0.19-0.771
		s0.3-0.433,0.519-0.589c0.164-0.121,0.388-0.224,0.671-0.308s0.587-0.126,0.911-0.126c0.488,0,0.917,0.07,1.286,0.211
		s0.642,0.331,0.817,0.571s0.297,0.562,0.363,0.964l-1.031,0.141c-0.047-0.32-0.183-0.57-0.407-0.75s-0.542-0.27-0.952-0.27
		c-0.484,0-0.83,0.08-1.037,0.24s-0.311,0.348-0.311,0.563c0,0.137,0.043,0.26,0.129,0.369c0.086,0.113,0.221,0.207,0.404,0.281
		c0.105,0.039,0.416,0.129,0.932,0.27c0.746,0.199,1.267,0.362,1.562,0.489s0.526,0.312,0.694,0.554s0.252,0.543,0.252,0.902
		c0,0.352-0.103,0.683-0.308,0.993s-0.501,0.551-0.888,0.721s-0.824,0.255-1.313,0.255c-0.809,0-1.425-0.168-1.849-0.504
		S286.311,280.655,286.194,279.995z"/>
	<path d="M294.918,280.909l0.152,0.932c-0.297,0.063-0.563,0.094-0.797,0.094c-0.383,0-0.68-0.061-0.891-0.182
		s-0.359-0.28-0.445-0.478s-0.129-0.612-0.129-1.245v-3.58h-0.773v-0.82h0.773v-1.541l1.049-0.633v2.174h1.061v0.82h-1.061v3.639
		c0,0.301,0.019,0.494,0.056,0.58s0.098,0.154,0.182,0.205s0.204,0.076,0.36,0.076C294.573,280.95,294.727,280.937,294.918,280.909z
		"/>
	<path d="M300.01,281.085c-0.391,0.332-0.767,0.566-1.128,0.703s-0.749,0.205-1.163,0.205c-0.684,0-1.209-0.167-1.576-0.501
		s-0.551-0.761-0.551-1.28c0-0.305,0.069-0.583,0.208-0.835s0.32-0.454,0.545-0.606s0.478-0.268,0.759-0.346
		c0.207-0.055,0.52-0.107,0.938-0.158c0.852-0.102,1.479-0.223,1.881-0.363c0.004-0.145,0.006-0.236,0.006-0.275
		c0-0.43-0.1-0.732-0.299-0.908c-0.27-0.238-0.67-0.357-1.201-0.357c-0.496,0-0.862,0.087-1.099,0.261s-0.411,0.481-0.524,0.923
		l-1.031-0.141c0.094-0.441,0.248-0.798,0.463-1.069s0.525-0.48,0.932-0.627s0.877-0.22,1.412-0.22c0.531,0,0.963,0.063,1.295,0.188
		s0.576,0.282,0.732,0.472s0.266,0.429,0.328,0.718c0.035,0.18,0.053,0.504,0.053,0.973v1.406c0,0.98,0.022,1.601,0.067,1.86
		s0.134,0.509,0.267,0.747h-1.102C300.112,281.634,300.042,281.378,300.01,281.085z M299.922,278.729
		c-0.383,0.156-0.957,0.289-1.723,0.398c-0.434,0.063-0.74,0.133-0.92,0.211s-0.318,0.192-0.416,0.343s-0.146,0.317-0.146,0.501
		c0,0.281,0.106,0.516,0.319,0.703s0.524,0.281,0.935,0.281c0.406,0,0.768-0.089,1.084-0.267s0.549-0.421,0.697-0.729
		c0.113-0.238,0.17-0.59,0.17-1.055V278.729z"/>
	<path d="M302.624,281.853v-6.223h0.949v0.885c0.457-0.684,1.117-1.025,1.98-1.025c0.375,0,0.72,0.067,1.034,0.202
		s0.55,0.312,0.706,0.53s0.266,0.479,0.328,0.779c0.039,0.195,0.059,0.537,0.059,1.025v3.826h-1.055v-3.785
		c0-0.43-0.041-0.751-0.123-0.964s-0.228-0.383-0.437-0.51s-0.454-0.19-0.735-0.19c-0.449,0-0.837,0.143-1.163,0.428
		s-0.489,0.826-0.489,1.623v3.398H302.624z"/>
	<path d="M313.358,279.573l1.037,0.135c-0.113,0.715-0.403,1.274-0.87,1.679s-1.04,0.606-1.72,0.606
		c-0.852,0-1.536-0.278-2.054-0.835s-0.776-1.354-0.776-2.394c0-0.672,0.111-1.26,0.334-1.764s0.562-0.882,1.017-1.134
		s0.95-0.378,1.485-0.378c0.676,0,1.229,0.171,1.658,0.513s0.705,0.827,0.826,1.456l-1.025,0.158
		c-0.098-0.418-0.271-0.732-0.519-0.943s-0.548-0.316-0.899-0.316c-0.531,0-0.963,0.19-1.295,0.571s-0.498,0.983-0.498,1.808
		c0,0.836,0.16,1.443,0.48,1.822s0.738,0.568,1.254,0.568c0.414,0,0.76-0.127,1.037-0.381S313.284,280.101,313.358,279.573z"/>
	<path d="M319.557,279.849l1.09,0.135c-0.172,0.637-0.49,1.131-0.955,1.482s-1.059,0.527-1.781,0.527
		c-0.91,0-1.632-0.28-2.165-0.841s-0.8-1.347-0.8-2.358c0-1.047,0.27-1.859,0.809-2.438s1.238-0.867,2.098-0.867
		c0.832,0,1.512,0.283,2.039,0.85s0.791,1.363,0.791,2.391c0,0.063-0.002,0.156-0.006,0.281h-4.641
		c0.039,0.684,0.232,1.207,0.58,1.57s0.781,0.545,1.301,0.545c0.387,0,0.717-0.102,0.99-0.305S319.397,280.294,319.557,279.849z
		 M316.094,278.144h3.475c-0.047-0.523-0.18-0.916-0.398-1.178c-0.336-0.406-0.771-0.609-1.307-0.609
		c-0.484,0-0.892,0.162-1.222,0.486S316.129,277.601,316.094,278.144z"/>
</g>
<g>
	<path d="M11.034,150.838h-8.59v-2.959c0-0.668,0.041-1.178,0.123-1.529c0.113-0.492,0.318-0.912,0.615-1.26
		c0.383-0.453,0.872-0.791,1.468-1.016s1.276-0.338,2.042-0.338c0.652,0,1.23,0.076,1.734,0.229s0.921,0.348,1.251,0.586
		s0.59,0.5,0.779,0.783s0.333,0.625,0.431,1.025s0.146,0.859,0.146,1.379V150.838z M10.02,149.701v-1.834
		c0-0.566-0.053-1.01-0.158-1.332s-0.254-0.58-0.445-0.771c-0.27-0.27-0.632-0.479-1.087-0.629s-1.007-0.227-1.655-0.227
		c-0.898,0-1.589,0.148-2.071,0.443s-0.806,0.652-0.97,1.074c-0.117,0.305-0.176,0.795-0.176,1.471v1.805H10.02z"/>
	<path d="M9.03,138.047l0.135-1.09c0.637,0.172,1.131,0.49,1.482,0.955s0.527,1.059,0.527,1.781c0,0.91-0.28,1.632-0.841,2.166
		s-1.347,0.799-2.358,0.799c-1.047,0-1.859-0.27-2.438-0.809s-0.867-1.238-0.867-2.097c0-0.832,0.283-1.512,0.85-2.039
		s1.363-0.791,2.391-0.791c0.063,0,0.156,0.002,0.281,0.006v4.64c0.684-0.039,1.207-0.232,1.57-0.58
		c0.363-0.348,0.545-0.781,0.545-1.301c0-0.387-0.102-0.717-0.305-0.99S9.475,138.208,9.03,138.047z M7.325,141.51v-3.474
		c-0.523,0.047-0.916,0.18-1.178,0.398c-0.406,0.336-0.609,0.771-0.609,1.307c0,0.484,0.162,0.892,0.486,1.222
		C6.348,141.293,6.782,141.475,7.325,141.51z"/>
	<path d="M11.034,135.633H4.811v-0.949h0.885c-0.684-0.457-1.025-1.117-1.025-1.98c0-0.375,0.067-0.72,0.202-1.034
		s0.312-0.55,0.53-0.706s0.479-0.266,0.779-0.328c0.195-0.039,0.537-0.059,1.025-0.059h3.826v1.055H7.249
		c-0.43,0-0.751,0.041-0.964,0.123s-0.383,0.228-0.51,0.437s-0.19,0.454-0.19,0.735c0,0.449,0.143,0.837,0.428,1.163
		s0.826,0.489,1.623,0.489h3.398V135.633z"/>
	<path d="M9.176,129.381l-0.164-1.043c0.418-0.059,0.738-0.222,0.961-0.489s0.334-0.642,0.334-1.122
		c0-0.484-0.099-0.844-0.296-1.078s-0.429-0.352-0.694-0.352c-0.238,0-0.426,0.104-0.563,0.311
		c-0.094,0.145-0.213,0.504-0.357,1.078c-0.195,0.773-0.364,1.31-0.507,1.608s-0.34,0.525-0.592,0.68s-0.53,0.231-0.835,0.231
		c-0.277,0-0.534-0.063-0.771-0.19s-0.433-0.3-0.589-0.519c-0.121-0.164-0.224-0.388-0.308-0.671s-0.126-0.587-0.126-0.911
		c0-0.488,0.07-0.917,0.211-1.286s0.331-0.642,0.571-0.817s0.562-0.297,0.964-0.363l0.141,1.031c-0.32,0.047-0.57,0.183-0.75,0.407
		s-0.27,0.542-0.27,0.952c0,0.484,0.08,0.83,0.24,1.037s0.348,0.311,0.563,0.311c0.137,0,0.26-0.043,0.369-0.129
		c0.113-0.086,0.207-0.221,0.281-0.404c0.039-0.105,0.129-0.416,0.27-0.932c0.199-0.746,0.362-1.267,0.489-1.562
		s0.312-0.526,0.554-0.694s0.543-0.252,0.902-0.252c0.352,0,0.683,0.103,0.993,0.308s0.551,0.501,0.721,0.888
		s0.255,0.824,0.255,1.313c0,0.809-0.168,1.425-0.504,1.849S9.836,129.264,9.176,129.381z"/>
	<path d="M3.657,122.954H2.444v-1.055h1.213V122.954z M11.034,122.954H4.811v-1.055h6.223V122.954z"/>
	<path d="M10.09,117.991l0.932-0.152c0.063,0.297,0.094,0.563,0.094,0.797c0,0.383-0.061,0.68-0.182,0.891s-0.28,0.359-0.478,0.445
		S9.844,120.1,9.211,120.1h-3.58v0.773h-0.82V120.1H3.27l-0.633-1.049h2.174v-1.061h0.82v1.061H9.27c0.301,0,0.494-0.019,0.58-0.056
		s0.154-0.098,0.205-0.182s0.076-0.204,0.076-0.36C10.131,118.336,10.118,118.182,10.09,117.991z"/>
	<path d="M13.43,117.006l-0.99,0.117c0.063-0.23,0.094-0.432,0.094-0.604c0-0.234-0.039-0.422-0.117-0.563s-0.188-0.256-0.328-0.346
		c-0.105-0.066-0.367-0.174-0.785-0.322c-0.059-0.02-0.145-0.051-0.258-0.094l-6.234,2.361v-1.137l3.604-1.295
		c0.457-0.168,0.938-0.318,1.441-0.451c-0.484-0.121-0.957-0.266-1.418-0.434l-3.627-1.33v-1.055l6.328,2.367
		c0.684,0.254,1.154,0.451,1.412,0.592c0.348,0.188,0.603,0.402,0.765,0.645s0.243,0.531,0.243,0.867
		C13.559,116.53,13.516,116.756,13.43,117.006z"/>
</g>
</svg>
